  <svg
      xmlns="http://www.w3.org/2000/svg"
      version="1"
      viewBox="0 0 729.49 379.48"
    >
      <defs>
        <radialGradient
          id="radialGradient4086"
          cx="-61.776"
          cy="266.42"
          r="42.557"
          gradientTransform="matrix(12.145 -.10886 .02635 3.4366 1133.4 -713.74)"
          gradientUnits="userSpaceOnUse"
        >
          <stop offset="0" stopColor="#000"></stop>
          <stop offset="0.295" stopColor="#dadada"></stop>
          <stop offset="0.819" stopColor="#282828"></stop>
          <stop offset="0.825" stopColor="#fff"></stop>
          <stop offset="1" stopColor="#000"></stop>
        </radialGradient>
        <radialGradient
          id="radialGradient4713"
          cx="-27.165"
          cy="303.94"
          r="14.177"
          gradientTransform="matrix(.86983 12.814 -14.818 1.1756 4913.3 76.608)"
          gradientUnits="userSpaceOnUse"
        >
          <stop offset="0" stopColor="#000"></stop>
          <stop offset="0" stopColor="#dadada"></stop>
          <stop offset="0.819" stopColor="#282828"></stop>
          <stop offset="0.825" stopColor="#fff"></stop>
          <stop offset="1" stopColor="#000"></stop>
        </radialGradient>
        <linearGradient
          id="linearGradient4669"
          x1="-354.46"
          x2="-310.16"
          y1="75.158"
          y2="126.07"
          gradientTransform="matrix(2.0877 0 0 2.257 1095.5 -96.09)"
          gradientUnits="userSpaceOnUse"
        >
          <stop offset="0" stopColor="#eeeeed"></stop>
          <stop offset="1" stopColor="#eeeeed" stopOpacity="0"></stop>
        </linearGradient>
        <linearGradient
          id="linearGradient4671"
          x1="-335.69"
          x2="-356.12"
          y1="-90"
          y2="-117.19"
          gradientTransform="matrix(2.0877 0 0 2.257 1185.2 454.8)"
          gradientUnits="userSpaceOnUse"
        >
          <stop offset="0" stopColor="#fff"></stop>
          <stop offset="1" stopColor="#fff" stopOpacity="0"></stop>
        </linearGradient>
        <linearGradient
          id="linearGradient4737"
          x1="22.577"
          x2="22.577"
          y1="350.77"
          y2="343.88"
          gradientTransform="matrix(8.5707 0 0 9.2657 189.27 -2796.5)"
          gradientUnits="userSpaceOnUse"
        >
          <stop offset="0" stopColor="#e6e6e5"></stop>
          <stop offset="1" stopColor="#e6e6e5" stopOpacity="0"></stop>
        </linearGradient>
        <linearGradient
          id="linearGradient4787"
          x1="-58.44"
          x2="-55.672"
          y1="346.25"
          y2="346.25"
          gradientTransform="matrix(8.5707 0 0 9.2657 527.13 -2896.4)"
          gradientUnits="userSpaceOnUse"
          spreadMethod="repeat"
        >
          <stop offset="0" stopColor="#000"></stop>
          <stop offset="1" stopColor="#000" stopOpacity="0"></stop>
        </linearGradient>
      </defs>
      <g transform="translate(-25.336 -60.11)">
        <path
          fill="#000"
          d="M381.22 439.59c-76.94 0-139.32-54.4-139.32-121.41 0-10.03 1.4-19.71 4.04-29.04 1.22-36.85 61.13-66.65 134.9-66.65 71.39 0 129.88 27.9 134.68 63.1a106.61 106.61 0 015.09 32.59c0 67.01-62.46 121.41-139.39 121.41z"
        ></path>
        <path
          fill="url(#radialGradient4086)"
          d="M389.57 145.7c-12.6 0-25.04.37-37.31.85-177.97 7.75-286.73 70.69-326.92 138.94 77.17 63.99 212.36 106.39 366.15 106.39 151.51 0 284.95-41.17 362.66-103.59.22-.4.46-.81.68-1.22-39.43-68.87-148.58-132.71-327.94-140.52-.15 0-.3.01-.45 0-5.95-.25-12.05-.48-18.15-.61h-.12c-6.14-.13-12.3-.24-18.6-.24z"
        ></path>
        <path
          fill="#eeeeed"
          d="M182.5 244.68a.25 1.25 0 11-.5 0 .25 1.25 0 11.5 0z"
          opacity="0.549"
          transform="matrix(2.3943 0 0 2.5884 -262.35 -433.38)"
        ></path>
        <path
          fill="url(#radialGradient4713)"
          d="M385.97 60.11c-67.09 0-121.48 47.44-121.48 105.87 0 8.75 1.22 17.19 3.52 25.32 1.06 32.13 53.31 58.11 117.63 58.11 62.25 0 113.25-24.32 117.43-55.01 2.9-9.05 4.44-18.57 4.44-28.42 0-58.43-54.46-105.87-121.54-105.87z"
        ></path>
        <path
          fill="url(#linearGradient4669)"
          d="M384.02 62.437c-58.94 0-106.77 41.653-106.77 92.983 0 8.66 1.35 17.03 3.9 24.98 102.76-42.91 119.11-86.139 205.74 0a81.83 81.83 0 003.89-24.98c0-51.33-47.83-92.984-106.76-92.983z"
          opacity="0.893"
        ></path>
        <path
          fill="url(#linearGradient4671)"
          d="M490.42 115.4c-24.26 27.69-54.75 55.32-90.23 80.62-21.57 15.38-43.51 28.79-65.18 40.2 13.41 2.67 28.02 4.16 43.32 4.16 62.25 0 113.25-24.32 117.44-55.01a93.148 93.148 0 004.43-28.43c0-14.74-3.52-28.78-9.78-41.54z"
        ></path>
        <path
          fill="url(#linearGradient4737)"
          d="M382.73 435.79c-74.42 0-134.77-52.63-134.77-117.45 0-9.71 1.36-19.07 3.91-28.09 1.17-35.66 59.14-64.48 130.5-64.48 69.06 0 125.64 26.98 130.28 61.03 3.22 10.05 4.93 20.61 4.93 31.54 0 64.82-60.43 117.45-134.85 117.45z"
        ></path>
        <path
          fill="none"
          stroke="url(#linearGradient4787)"
          strokeWidth="8.911"
          d="M30.55 287.38s307.57 119.57 715.13-3.28"
        ></path>
      </g>
    </svg>